<?xml version="1.0" encoding="UTF-8" standalone="no"?>
<!DOCTYPE svg PUBLIC "-//W3C//DTD SVG 1.1//EN" "http://www.w3.org/Graphics/SVG/1.1/DTD/svg11.dtd">
<!-- Generated by Microsoft Visio, SVG Export Template-2v0.svg Page-1 -->
<svg xmlns="http://www.w3.org/2000/svg" xmlns:xlink="http://www.w3.org/1999/xlink" xmlns:ev="http://www.w3.org/2001/xml-events"
		width="18.9289in" height="8.29897in" viewBox="0 0 1362.88 597.526" xml:space="preserve" color-interpolation-filters="sRGB"
		class="st20">
	<style type="text/css">
	<![CDATA[
		.st1 {fill:#ffffff;stroke:#000000;stroke-linecap:butt;stroke-width:1}
		.st2 {fill:#7f7f7f;stroke:#000000;stroke-linecap:butt;stroke-width:1.25}
		.st3 {fill:#e7e6e6;font-family:Calibri;font-size:1.16666em;font-weight:bold}
		.st4 {marker-start:url(#mrkr4-14);stroke:#000000;stroke-linecap:butt;stroke-width:5}
		.st5 {fill:#000000;fill-opacity:1;stroke:#000000;stroke-opacity:1;stroke-width:0.66489361702128}
		.st6 {fill:none;stroke:none;stroke-linecap:butt;stroke-width:1.25}
		.st7 {fill:#000000;font-family:Calibri;font-size:0.833336em}
		.st8 {font-size:1em}
		.st9 {fill:#f2f2f2;stroke:#000000;stroke-dasharray:10,5;stroke-linecap:butt;stroke-width:1.25}
		.st10 {fill:#c0bfbf;stroke:#000000;stroke-linecap:butt;stroke-width:1.25}
		.st11 {fill:#000000;font-family:Nunito Sans;font-size:1.5em;font-weight:bold}
		.st12 {fill:#000000;font-family:Franklin Gothic Book;font-size:1.5em;font-weight:bold}
		.st13 {marker-end:url(#mrkr4-196);stroke:#000000;stroke-linecap:butt;stroke-width:5}
		.st14 {fill:#000000;font-family:Nunito Sans;font-size:1.16666em}
		.st15 {fill:#000000;stroke:#000000;stroke-linecap:butt;stroke-width:1.25}
		.st16 {marker-end:url(#mrkr4-232);stroke:#a65e11;stroke-linecap:butt;stroke-width:5}
		.st17 {fill:#a65e11;fill-opacity:1;stroke:#a65e11;stroke-opacity:1;stroke-width:0.66489361702128}
		.st18 {fill:#f4cb9f;stroke:#000000;stroke-linecap:butt;stroke-width:1.25}
		.st19 {marker-start:url(#mrkr4-280);stroke:#a65e11;stroke-linecap:butt;stroke-width:5}
		.st20 {fill:none;fill-rule:evenodd;font-size:12px;overflow:visible;stroke-linecap:square;stroke-miterlimit:3}
	]]>
	</style>

	<defs id="Markers">
		<g id="lend4">
			<path d="M 2 1 L 0 0 L 2 -1 L 2 1 " style="stroke:none"/>
		</g>
		<marker id="mrkr4-14" class="st5" refX="2.936" orient="auto" markerUnits="strokeWidth" overflow="visible">
			<use xlink:href="#lend4" transform="scale(1.504) "/>
		</marker>
		<marker id="mrkr4-196" class="st5" refX="-3.008" orient="auto" markerUnits="strokeWidth" overflow="visible">
			<use xlink:href="#lend4" transform="scale(-1.504,-1.504) "/>
		</marker>
		<marker id="mrkr4-232" class="st17" refX="-3.008" orient="auto" markerUnits="strokeWidth" overflow="visible">
			<use xlink:href="#lend4" transform="scale(-1.504,-1.504) "/>
		</marker>
		<marker id="mrkr4-280" class="st17" refX="2.936" orient="auto" markerUnits="strokeWidth" overflow="visible">
			<use xlink:href="#lend4" transform="scale(1.504) "/>
		</marker>
	</defs>
	<g>
		<title>Page-1</title>
		<g id="shape18-1" transform="translate(1.25,-1)">
			<title>Rectangle.291</title>
			<rect x="0" y="2.25" width="1360.63" height="595.276" class="st1"/>
		</g>
		<g id="group208-3" transform="translate(1021.72,-397.85)">
			<title>Sheet.208</title>
			<g id="shape209-4">
				<title>Rectangle.292</title>
				<rect x="0" y="469.967" width="290.551" height="127.559" class="st1"/>
			</g>
			<g id="shape210-6" transform="translate(77.9528,-14.1732)">
				<title>Rectangle.293</title>
				<desc>ErrorAnalyzer</desc>
				<rect x="0" y="498.313" width="141.732" height="99.2126" class="st2"/>
				<text x="30.94" y="552.12" class="st3">ErrorAnalyzer</text>			</g>
			<g id="shape211-9" transform="translate(77.9528,1110.01) rotate(180)">
				<title>Sheet.211</title>
				<path d="M14.68 597.53 L15.04 597.53 L77.95 597.53" class="st4"/>
			</g>
			<g id="shape212-15" transform="translate(5.36669E-06,-49.6063)">
				<title>Sheet.212</title>
				<desc>Expected Data</desc>
				<rect x="0" y="576.266" width="77.9528" height="21.2598" class="st6"/>
				<text x="4" y="589.9" class="st7">Expected Data</text>			</g>
			<g id="shape213-18" transform="translate(77.9528,1145.44) rotate(180)">
				<title>Sheet.213</title>
				<path d="M14.68 597.53 L15.04 597.53 L77.95 597.53" class="st4"/>
			</g>
			<g id="shape214-23" transform="translate(5.36669E-06,-85.0394)">
				<title>Sheet.214</title>
				<desc>Data</desc>
				<rect x="0" y="576.266" width="70.8661" height="21.2598" class="st6"/>
				<text x="4" y="589.9" class="st7">Data</text>			</g>
			<g id="shape215-26" transform="translate(5.36669E-06,-28.3465)">
				<title>Sheet.215</title>
				<desc>Pass / Fail</desc>
				<rect x="0" y="576.266" width="77.9528" height="21.2598" class="st6"/>
				<text x="4" y="589.9" class="st7">Pass / Fail</text>			</g>
			<g id="shape216-29" transform="translate(290.551,1131.27) rotate(180)">
				<title>Sheet.216</title>
				<path d="M14.68 597.53 L15.04 597.53 L70.87 597.53" class="st4"/>
			</g>
			<g id="shape217-34" transform="translate(219.685,-63.7795)">
				<title>Sheet.217</title>
				<desc>Error Pattern</desc>
				<rect x="0" y="576.266" width="63.7795" height="21.2598" class="st6"/>
				<text x="4" y="589.9" class="st7">Error Pattern</text>			</g>
			<g id="group218-37" transform="translate(92.126,-21.2598)">
				<title>Sheet.218</title>
				<g id="shape219-38">
					<title>Rectangle.306</title>
					<desc>Segment Inspector</desc>
					<rect x="0" y="569.179" width="48.8977" height="28.3465" class="st1"/>
					<text x="6.53" y="580.35" class="st7">Segment<tspan x="5.32" dy="1.2em" class="st8">Inspector</tspan></text>				</g>
				<g id="shape220-42" transform="translate(70.8661,0)">
					<title>Rectangle.307</title>
					<desc>Segment Inspector</desc>
					<rect x="0" y="569.179" width="48.8977" height="28.3465" class="st1"/>
					<text x="6.53" y="580.35" class="st7">Segment<tspan x="5.32" dy="1.2em" class="st8">Inspector</tspan></text>				</g>
				<g id="shape221-46" transform="translate(49.6063,-1.13687E-13)">
					<title>Rectangle.308</title>
					<desc>...</desc>
					<rect x="0" y="569.179" width="21.2598" height="28.3465" class="st6"/>
					<text x="5.02" y="587.55" class="st3">...</text>				</g>
			</g>
			<g id="group222-49" transform="translate(92.126,-77.9528)">
				<title>Sheet.222</title>
				<g id="shape223-50" transform="translate(70.1575,1.13687E-13)">
					<title>Rectangle.302</title>
					<desc>Sample Inspector</desc>
					<rect x="0" y="569.179" width="48.8977" height="28.3465" class="st1"/>
					<text x="9.5" y="580.35" class="st7">Sample<tspan x="5.32" dy="1.2em" class="st8">Inspector</tspan></text>				</g>
				<g id="shape224-54">
					<title>Rectangle.301</title>
					<desc>Sample Inspector</desc>
					<rect x="0" y="569.179" width="48.8977" height="28.3465" class="st1"/>
					<text x="9.5" y="580.35" class="st7">Sample<tspan x="5.32" dy="1.2em" class="st8">Inspector</tspan></text>				</g>
				<g id="shape225-58" transform="translate(48.8977,0)">
					<title>Rectangle.305</title>
					<desc>...</desc>
					<rect x="0" y="569.179" width="21.2598" height="28.3465" class="st6"/>
					<text x="5.02" y="587.55" class="st3">...</text>				</g>
			</g>
		</g>
		<g id="group190-61" transform="translate(596.526,-397.85)">
			<title>Sheet.190</title>
			<g id="shape191-62">
				<title>Rectangle.292</title>
				<rect x="0" y="469.967" width="290.551" height="127.559" class="st1"/>
			</g>
			<g id="shape192-64" transform="translate(77.9528,-14.1732)">
				<title>Rectangle.293</title>
				<desc>ErrorAnalyzer</desc>
				<rect x="0" y="498.313" width="141.732" height="99.2126" class="st2"/>
				<text x="30.94" y="552.12" class="st3">ErrorAnalyzer</text>			</g>
			<g id="shape193-67" transform="translate(77.9528,1110.01) rotate(180)">
				<title>Sheet.193</title>
				<path d="M14.68 597.53 L15.04 597.53 L77.95 597.53" class="st4"/>
			</g>
			<g id="shape194-72" transform="translate(5.36669E-06,-49.6063)">
				<title>Sheet.194</title>
				<desc>Expected Data</desc>
				<rect x="0" y="576.266" width="77.9528" height="21.2598" class="st6"/>
				<text x="4" y="589.9" class="st7">Expected Data</text>			</g>
			<g id="shape195-75" transform="translate(77.9528,1145.44) rotate(180)">
				<title>Sheet.195</title>
				<path d="M14.68 597.53 L15.04 597.53 L77.95 597.53" class="st4"/>
			</g>
			<g id="shape196-80" transform="translate(5.36669E-06,-85.0394)">
				<title>Sheet.196</title>
				<desc>Data</desc>
				<rect x="0" y="576.266" width="70.8661" height="21.2598" class="st6"/>
				<text x="4" y="589.9" class="st7">Data</text>			</g>
			<g id="shape197-83" transform="translate(5.36669E-06,-28.3465)">
				<title>Sheet.197</title>
				<desc>Pass / Fail</desc>
				<rect x="0" y="576.266" width="77.9528" height="21.2598" class="st6"/>
				<text x="4" y="589.9" class="st7">Pass / Fail</text>			</g>
			<g id="shape198-86" transform="translate(290.551,1131.27) rotate(180)">
				<title>Sheet.198</title>
				<path d="M14.68 597.53 L15.04 597.53 L70.87 597.53" class="st4"/>
			</g>
			<g id="shape199-91" transform="translate(219.685,-63.7795)">
				<title>Sheet.199</title>
				<desc>Error Pattern</desc>
				<rect x="0" y="576.266" width="63.7795" height="21.2598" class="st6"/>
				<text x="4" y="589.9" class="st7">Error Pattern</text>			</g>
			<g id="group200-94" transform="translate(92.126,-21.2598)">
				<title>Sheet.200</title>
				<g id="shape201-95">
					<title>Rectangle.306</title>
					<desc>Segment Inspector</desc>
					<rect x="0" y="569.179" width="48.8977" height="28.3465" class="st1"/>
					<text x="6.53" y="580.35" class="st7">Segment<tspan x="5.32" dy="1.2em" class="st8">Inspector</tspan></text>				</g>
				<g id="shape202-99" transform="translate(70.8661,0)">
					<title>Rectangle.307</title>
					<desc>Segment Inspector</desc>
					<rect x="0" y="569.179" width="48.8977" height="28.3465" class="st1"/>
					<text x="6.53" y="580.35" class="st7">Segment<tspan x="5.32" dy="1.2em" class="st8">Inspector</tspan></text>				</g>
				<g id="shape203-103" transform="translate(49.6063,-1.13687E-13)">
					<title>Rectangle.308</title>
					<desc>...</desc>
					<rect x="0" y="569.179" width="21.2598" height="28.3465" class="st6"/>
					<text x="5.02" y="587.55" class="st3">...</text>				</g>
			</g>
			<g id="group204-106" transform="translate(92.126,-77.9528)">
				<title>Sheet.204</title>
				<g id="shape205-107" transform="translate(70.1575,1.13687E-13)">
					<title>Rectangle.302</title>
					<desc>Sample Inspector</desc>
					<rect x="0" y="569.179" width="48.8977" height="28.3465" class="st1"/>
					<text x="9.5" y="580.35" class="st7">Sample<tspan x="5.32" dy="1.2em" class="st8">Inspector</tspan></text>				</g>
				<g id="shape206-111">
					<title>Rectangle.301</title>
					<desc>Sample Inspector</desc>
					<rect x="0" y="569.179" width="48.8977" height="28.3465" class="st1"/>
					<text x="9.5" y="580.35" class="st7">Sample<tspan x="5.32" dy="1.2em" class="st8">Inspector</tspan></text>				</g>
				<g id="shape207-115" transform="translate(48.8977,0)">
					<title>Rectangle.305</title>
					<desc>...</desc>
					<rect x="0" y="569.179" width="21.2598" height="28.3465" class="st6"/>
					<text x="5.02" y="587.55" class="st3">...</text>				</g>
			</g>
		</g>
		<g id="group154-118" transform="translate(171.329,-397.85)">
			<title>Sheet.154</title>
			<g id="shape155-119">
				<title>Rectangle.292</title>
				<rect x="0" y="469.967" width="290.551" height="127.559" class="st1"/>
			</g>
			<g id="shape156-121" transform="translate(77.9528,-14.1732)">
				<title>Rectangle.293</title>
				<desc>ErrorAnalyzer</desc>
				<rect x="0" y="498.313" width="141.732" height="99.2126" class="st2"/>
				<text x="30.94" y="552.12" class="st3">ErrorAnalyzer</text>			</g>
			<g id="shape157-124" transform="translate(77.9528,1110.01) rotate(180)">
				<title>Sheet.157</title>
				<path d="M14.68 597.53 L15.04 597.53 L77.95 597.53" class="st4"/>
			</g>
			<g id="shape158-129" transform="translate(5.36669E-06,-49.6063)">
				<title>Sheet.158</title>
				<desc>Expected Data</desc>
				<rect x="0" y="576.266" width="77.9528" height="21.2598" class="st6"/>
				<text x="4" y="589.9" class="st7">Expected Data</text>			</g>
			<g id="shape159-132" transform="translate(77.9528,1145.44) rotate(180)">
				<title>Sheet.159</title>
				<path d="M14.68 597.53 L15.04 597.53 L77.95 597.53" class="st4"/>
			</g>
			<g id="shape160-137" transform="translate(5.36669E-06,-85.0394)">
				<title>Sheet.160</title>
				<desc>Data</desc>
				<rect x="0" y="576.266" width="70.8661" height="21.2598" class="st6"/>
				<text x="4" y="589.9" class="st7">Data</text>			</g>
			<g id="shape161-140" transform="translate(5.36669E-06,-28.3465)">
				<title>Sheet.161</title>
				<desc>Pass / Fail</desc>
				<rect x="0" y="576.266" width="77.9528" height="21.2598" class="st6"/>
				<text x="4" y="589.9" class="st7">Pass / Fail</text>			</g>
			<g id="shape162-143" transform="translate(290.551,1131.27) rotate(180)">
				<title>Sheet.162</title>
				<path d="M14.68 597.53 L15.04 597.53 L70.87 597.53" class="st4"/>
			</g>
			<g id="shape163-148" transform="translate(219.685,-63.7795)">
				<title>Sheet.163</title>
				<desc>Error Pattern</desc>
				<rect x="0" y="576.266" width="63.7795" height="21.2598" class="st6"/>
				<text x="4" y="589.9" class="st7">Error Pattern</text>			</g>
			<g id="group164-151" transform="translate(92.126,-21.2598)">
				<title>Sheet.164</title>
				<g id="shape165-152">
					<title>Rectangle.306</title>
					<desc>Segment Inspector</desc>
					<rect x="0" y="569.179" width="48.8977" height="28.3465" class="st1"/>
					<text x="6.53" y="580.35" class="st7">Segment<tspan x="5.32" dy="1.2em" class="st8">Inspector</tspan></text>				</g>
				<g id="shape166-156" transform="translate(70.8661,0)">
					<title>Rectangle.307</title>
					<desc>Segment Inspector</desc>
					<rect x="0" y="569.179" width="48.8977" height="28.3465" class="st1"/>
					<text x="6.53" y="580.35" class="st7">Segment<tspan x="5.32" dy="1.2em" class="st8">Inspector</tspan></text>				</g>
				<g id="shape167-160" transform="translate(49.6063,-1.13687E-13)">
					<title>Rectangle.308</title>
					<desc>...</desc>
					<rect x="0" y="569.179" width="21.2598" height="28.3465" class="st6"/>
					<text x="5.02" y="587.55" class="st3">...</text>				</g>
			</g>
			<g id="group168-163" transform="translate(92.126,-77.9528)">
				<title>Sheet.168</title>
				<g id="shape169-164" transform="translate(70.1575,1.13687E-13)">
					<title>Rectangle.302</title>
					<desc>Sample Inspector</desc>
					<rect x="0" y="569.179" width="48.8977" height="28.3465" class="st1"/>
					<text x="9.5" y="580.35" class="st7">Sample<tspan x="5.32" dy="1.2em" class="st8">Inspector</tspan></text>				</g>
				<g id="shape170-168">
					<title>Rectangle.301</title>
					<desc>Sample Inspector</desc>
					<rect x="0" y="569.179" width="48.8977" height="28.3465" class="st1"/>
					<text x="9.5" y="580.35" class="st7">Sample<tspan x="5.32" dy="1.2em" class="st8">Inspector</tspan></text>				</g>
				<g id="shape171-172" transform="translate(48.8977,0)">
					<title>Rectangle.305</title>
					<desc>...</desc>
					<rect x="0" y="569.179" width="21.2598" height="28.3465" class="st6"/>
					<text x="5.02" y="587.55" class="st3">...</text>				</g>
			</g>
		</g>
		<g id="shape21-175" transform="translate(412.274,-29.3465)">
			<title>Sheet.21</title>
			<path d="M0 597.53 L524.41 597.53 L524.41 342.41 L0 342.41 L0 597.53 Z" class="st9"/>
		</g>
		<g id="shape19-177" transform="translate(440.62,-114.386)">
			<title>Sheet.19</title>
			<desc>ADC SPI</desc>
			<rect x="0" y="512.725" width="113.386" height="84.8004" class="st10"/>
			<text x="37.13" y="549.73" class="st11">ADC <tspan x="42.48" dy="1.2em" class="st8">SPI</tspan></text>		</g>
		<g id="shape20-181" transform="translate(426.447,-29.3464)">
			<title>Sheet.20</title>
			<desc>meas_top</desc>
			<rect x="0" y="569.179" width="170.079" height="28.3465" class="st6"/>
			<text x="4" y="588.75" class="st12">meas_top</text>		</g>
		<g id="shape22-184" transform="translate(624.872,-114.505)">
			<title>Sheet.22</title>
			<desc>Averager</desc>
			<rect x="0" y="512.725" width="113.386" height="84.8004" class="st10"/>
			<text x="18.52" y="560.53" class="st11">Averager</text>		</g>
		<g id="shape24-187" transform="translate(809.124,-114.386)">
			<title>Sheet.24</title>
			<desc>DAC SPI</desc>
			<rect x="0" y="512.725" width="113.386" height="84.8004" class="st10"/>
			<text x="37.13" y="549.73" class="st11">DAC <tspan x="42.48" dy="1.2em" class="st8">SPI</tspan></text>		</g>
		<g id="shape30-191" transform="translate(313.06,-156.905)">
			<title>Sheet.30</title>
			<path d="M0 597.53 L112.52 597.53" class="st13"/>
		</g>
		<g id="shape31-197" transform="translate(922.51,-156.905)">
			<title>Sheet.31</title>
			<path d="M0 597.53 L112.52 597.53" class="st13"/>
		</g>
		<g id="shape32-202" transform="translate(199.675,-114.625)">
			<title>Sheet.32</title>
			<desc>ADC Model 12bit</desc>
			<rect x="0" y="512.725" width="113.386" height="84.8004" class="st10"/>
			<text x="37.13" y="538.93" class="st11">ADC <tspan x="31.47" dy="1.2em" class="st8">Model </tspan><tspan x="34.87"
						dy="1.2em" class="st8">12bit</tspan></text>		</g>
		<g id="shape33-207" transform="translate(1050.07,-114.386)">
			<title>Sheet.33</title>
			<desc>DAC Model 12bit</desc>
			<rect x="0" y="512.725" width="113.386" height="84.8004" class="st10"/>
			<text x="37.13" y="538.93" class="st11">DAC <tspan x="31.47" dy="1.2em" class="st8">Model </tspan><tspan x="34.87"
						dy="1.2em" class="st8">12bit</tspan></text>		</g>
		<g id="shape34-212" transform="translate(327.234,-156.905)">
			<title>Sheet.34</title>
			<desc>SPI (2 channels)</desc>
			<rect x="0" y="555.006" width="99.2126" height="42.5197" class="st6"/>
			<text x="4" y="572.07" class="st14">SPI  <tspan x="4" dy="1.2em" class="st8">(2 channels)</tspan></text>		</g>
		<g id="shape35-216" transform="translate(936.683,-161.769)">
			<title>Sheet.35</title>
			<desc>SPI 2 channels</desc>
			<rect x="0" y="559.87" width="99.2126" height="37.656" class="st6"/>
			<text x="4" y="574.5" class="st14">SPI <tspan x="4" dy="1.2em" class="st8">2 channels</tspan></text>		</g>
		<g id="shape36-220" transform="translate(25.3161,-128.559)">
			<title>Document</title>
			<path d="M9 585.12 L9 583.35 L37.8 583.35 L37.8 585.12 L9 585.12 ZM9 578.04 L9 576.27 L37.8 576.27 L37.8 578.04 L9 578.04
						 ZM9 570.95 L9 569.18 L37.8 569.18 L37.8 570.95 L9 570.95 ZM9 563.86 L9 562.09 L37.8 562.09 L37.8 563.86
						 L9 563.86 ZM9 556.78 L9 555.01 L27.07 555.01 L27.07 556.78 L9 556.78 ZM43.2 593.98 L43.2 555.01 L32.4 555.01
						 L32.4 544.38 L3.6 544.38 L3.6 593.98 L43.2 593.98 ZM42.75 553.23 L34.2 544.82 L34.2 553.23 L42.75 553.23
						 ZM35.55 540.83 L46.8 551.91 L46.8 597.53 L0 597.53 L0 540.83 L35.55 540.83 Z" class="st15"/>
		</g>
		<g id="shape37-222" transform="translate(72.1153,-156.905)">
			<title>Sheet.37</title>
			<path d="M0 597.53 L112.52 597.53" class="st13"/>
		</g>
		<g id="shape38-227" transform="translate(-440.37,440.62) rotate(-90)">
			<title>Sheet.38</title>
			<path d="M0 597.53 L169.21 597.53" class="st16"/>
		</g>
		<g id="shape39-233" transform="translate(86.2894,-114.386)">
			<title>Sheet.39</title>
			<desc>ADC data</desc>
			<rect x="0" y="555.006" width="99.2126" height="42.5197" class="st6"/>
			<text x="4" y="580.47" class="st14">ADC data</text>		</g>
		<g id="shape41-236" transform="translate(341.407,-156.906)">
			<title>Sheet.41</title>
			<path d="M240.94 597.53 L240.94 498.31 L0 498.31 L0 428.31" class="st16"/>
		</g>
		<g id="shape44-241" transform="translate(1291.01,-128.559)">
			<title>Document.44</title>
			<path d="M9 585.12 L9 583.35 L37.8 583.35 L37.8 585.12 L9 585.12 ZM9 578.04 L9 576.27 L37.8 576.27 L37.8 578.04 L9 578.04
						 ZM9 570.95 L9 569.18 L37.8 569.18 L37.8 570.95 L9 570.95 ZM9 563.86 L9 562.09 L37.8 562.09 L37.8 563.86
						 L9 563.86 ZM9 556.78 L9 555.01 L27.07 555.01 L27.07 556.78 L9 556.78 ZM43.2 593.98 L43.2 555.01 L32.4 555.01
						 L32.4 544.38 L3.6 544.38 L3.6 593.98 L43.2 593.98 ZM42.75 553.23 L34.2 544.82 L34.2 553.23 L42.75 553.23
						 ZM35.55 540.83 L46.8 551.91 L46.8 597.53 L0 597.53 L0 540.83 L35.55 540.83 Z" class="st15"/>
		</g>
		<g id="shape45-243" transform="translate(1163.45,-156.906)">
			<title>Sheet.45</title>
			<path d="M0 597.53 L112.52 597.53" class="st13"/>
		</g>
		<g id="shape46-248" transform="translate(-15.1732,341.407) rotate(-90)">
			<title>Sheet.46</title>
			<path d="M0 597.53 L70.12 597.53" class="st16"/>
		</g>
		<g id="shape47-253" transform="translate(169.079,369.754) rotate(-90)">
			<title>Sheet.47</title>
			<path d="M0 597.53 L98.47 597.53" class="st16"/>
		</g>
		<g id="shape48-258" transform="translate(766.604,-156.906)">
			<title>Sheet.48</title>
			<path d="M0 597.53 L0 526.66 L0 498.31 L240.94 498.31 L240.94 428.31" class="st16"/>
		</g>
		<g id="shape49-263" transform="translate(608.449,440.501) rotate(-90)">
			<title>Sheet.49</title>
			<path d="M0 597.53 L169.21 597.53" class="st16"/>
		</g>
		<g id="shape50-268" transform="translate(1191.8,-114.386)">
			<title>Sheet.50</title>
			<desc>DAC data</desc>
			<rect x="0" y="555.006" width="99.2126" height="42.5197" class="st6"/>
			<text x="4" y="580.47" class="st14">DAC data</text>		</g>
		<g id="shape40-271" transform="translate(128.809,-341.157)">
			<title>Sheet.40</title>
			<desc>Scoreboard ADC SPI</desc>
			<rect x="0" y="512.725" width="240.945" height="84.8004" class="st18"/>
			<text x="72.64" y="560.53" class="st11">Scoreboard <tspan x="84.26" dy="1.2em" class="st8">ADC SPI</tspan></text>		</g>
		<g id="shape70-275" transform="translate(793.657,114.636) rotate(90)">
			<title>Sheet.70</title>
			<path d="M14.68 597.53 L15.04 597.53 L85.04 597.53" class="st19"/>
		</g>
		<g id="shape71-281" transform="translate(819.878,150.069) rotate(90)">
			<title>Sheet.71</title>
			<path d="M14.68 597.53 L15.04 597.53 L49.61 597.53" class="st19"/>
		</g>
		<g id="shape42-286" transform="translate(554.006,-341.277)">
			<title>Sheet.42</title>
			<desc>Scoreboard AVG</desc>
			<rect x="0" y="512.725" width="240.945" height="84.8004" class="st18"/>
			<text x="72.64" y="560.53" class="st11">Scoreboard <tspan x="100.77" dy="1.2em" class="st8">AVG</tspan></text>		</g>
		<g id="shape43-290" transform="translate(979.203,-341.277)">
			<title>Sheet.43</title>
			<desc>Scoreboard DAC SPI</desc>
			<rect x="0" y="512.725" width="255.118" height="84.8004" class="st18"/>
			<text x="79.72" y="560.53" class="st11">Scoreboard <tspan x="91.34" dy="1.2em" class="st8">DAC SPI</tspan></text>		</g>
		<g id="shape108-294" transform="translate(1218.85,114.636) rotate(90)">
			<title>Sheet.108</title>
			<path d="M14.68 597.53 L15.04 597.53 L85.04 597.53" class="st19"/>
		</g>
		<g id="shape109-299" transform="translate(1245.07,150.069) rotate(90)">
			<title>Sheet.109</title>
			<path d="M14.68 597.53 L15.04 597.53 L49.61 597.53" class="st19"/>
		</g>
		<g id="shape147-304" transform="translate(1644.05,114.636) rotate(90)">
			<title>Sheet.147</title>
			<path d="M14.68 597.53 L15.04 597.53 L85.04 597.53" class="st19"/>
		</g>
		<g id="shape148-309" transform="translate(1670.27,150.069) rotate(90)">
			<title>Sheet.148</title>
			<path d="M14.68 597.53 L15.04 597.53 L49.61 597.53" class="st19"/>
		</g>
		<g id="shape149-314" transform="translate(1.25,-567.929)">
			<title>Sheet.149</title>
			<desc>meas_top_tb</desc>
			<rect x="0" y="569.179" width="170.079" height="28.3465" class="st6"/>
			<text x="4" y="588.75" class="st12">meas_top_tb</text>		</g>
		<g id="shape150-317" transform="translate(554.006,-156.906)">
			<title>Sheet.150</title>
			<path d="M0 597.53 L55.83 597.53" class="st13"/>
		</g>
		<g id="shape151-322" transform="translate(738.258,-156.906)">
			<title>Sheet.151</title>
			<path d="M0 597.53 L55.83 597.53" class="st13"/>
		</g>
		<g id="shape152-327" transform="translate(554.006,-114.386)">
			<title>Sheet.152</title>
			<desc>12bit</desc>
			<rect x="0" y="555.006" width="99.2126" height="42.5197" class="st6"/>
			<text x="4" y="580.47" class="st14">12bit</text>		</g>
		<g id="shape153-330" transform="translate(738.258,-114.386)">
			<title>Sheet.153</title>
			<desc>12bit</desc>
			<rect x="0" y="555.006" width="99.2126" height="42.5197" class="st6"/>
			<text x="4" y="580.47" class="st14">12bit</text>		</g>
	</g>
</svg>
